/* XPM */
static char *fc850988f8a441c494650ba0e35617d3WfOLD6UvJ3FgJX8H[] = {
/* columns rows colors chars-per-pixel */
"64 64 147 2 ",
"   c #5F4826",
".  c #634C25",
"X  c #644D2C",
"o  c #6B4F29",
"O  c #665027",
"+  c #66512B",
"@  c #6B522D",
"#  c #72562D",
"$  c #785B2F",
"%  c #675331",
"&  c #6C5230",
"*  c #705631",
"=  c #775E34",
"-  c #7A5E35",
";  c #7B5F38",
":  c #776037",
">  c #7C6135",
",  c #7C6239",
"<  c #826436",
"1  c #826539",
"2  c #856939",
"3  c #89693A",
"4  c #936F3D",
"5  c #8E703E",
"6  c #95723E",
"7  c #98733E",
"8  c #967341",
"9  c #997542",
"0  c #9B7845",
"q  c #9C7248",
"w  c #99794A",
"e  c #A37F45",
"r  c #A57F4B",
"t  c #A48046",
"y  c #A98247",
"u  c #A6814C",
"i  c #A9834D",
"p  c #AF894F",
"a  c #B48C4E",
"s  c #B88E4F",
"d  c #B7904E",
"f  c #A38251",
"g  c #AA8451",
"h  c #AF8A52",
"j  c #AF8F5D",
"k  c #B48D51",
"l  c #B98F52",
"z  c #B28F5D",
"x  c #B69053",
"c  c #B89152",
"v  c #B6935D",
"b  c #B8955D",
"n  c #B9945F",
"m  c #B8955F",
"M  c #BA955E",
"N  c #B9965E",
"B  c #BB965F",
"V  c #BA975F",
"C  c #BE975E",
"Z  c #B9955E",
"A  c #B8985F",
"S  c #BF985D",
"D  c #BD995F",
"F  c #BC985E",
"G  c #B39360",
"H  c #B79160",
"J  c #B79361",
"K  c #B69560",
"L  c #B79660",
"P  c #B69760",
"I  c #B79661",
"U  c #B59461",
"Y  c #B89460",
"T  c #B99561",
"R  c #BA9560",
"E  c #B99660",
"W  c #BB9661",
"Q  c #BA9761",
"!  c #B89762",
"~  c #BA9662",
"^  c #BB9763",
"/  c #B99661",
"(  c #B99960",
")  c #BB9860",
"_  c #BC9961",
"`  c #BD9C67",
"'  c #BF9C66",
"]  c #BC9963",
"[  c #B89869",
"{  c #B9996A",
"}  c #B99A6B",
"|  c #BD9B6B",
" . c #BC9C69",
".. c #BE9D68",
"X. c #BF9E68",
"o. c #BF9E69",
"O. c #BE9D6A",
"+. c #BF9E6B",
"@. c #B99A6C",
"#. c #BB9B6C",
"$. c #BF9D6D",
"%. c #BF9F6C",
"&. c #BD9D6E",
"*. c #BF9F6E",
"=. c #BE9E6F",
"-. c #BD9D6B",
";. c #BE9F70",
":. c #C09D67",
">. c #C19E66",
",. c #C39E67",
"<. c #C19E66",
"1. c #C09C68",
"2. c #C19D69",
"3. c #C19E68",
"4. c #C09F69",
"5. c #C39E69",
"6. c #C29F69",
"7. c #C19D6B",
"8. c #C09F6A",
"9. c #C29E6A",
"0. c #C39F6B",
"q. c #C49F6B",
"w. c #C09F6C",
"e. c #C29E6C",
"r. c #C39F6D",
"t. c #C29E6E",
"y. c #C19E6B",
"u. c #C1A06A",
"i. c #C1A06B",
"p. c #C3A06A",
"a. c #C2A16B",
"s. c #C4A16B",
"d. c #C0A06D",
"f. c #C1A06D",
"g. c #C2A16C",
"h. c #C4A06C",
"j. c #C5A06C",
"k. c #C5A16D",
"l. c #C6A16D",
"z. c #C5A26C",
"x. c #C6A36D",
"c. c #C6A26E",
"v. c #C7A36F",
"b. c #C3A16D",
"n. c #C8A56F",
"m. c #C5A471",
"M. c #C9A670",
/* pixels */
"a a a a a a a a m m m m m m m m m v v m i.o.o.g.o.2.2.2.2.2.2.i.m m v I o.g.w.g.2.2.2.,.Y v n n m m m m m m m m m m v v 9 9 8 8 ",
"a a a a a a a a Y Y Y Y m m Y Y m m m m k.o.o.w.i.i.i.2.2.2.w.w.m m m I ` 2.o.o.$.$.g.o.Y m Y Y m m m m m m m m m Y Y Y 9 6 6 8 ",
"a a a a a a a a I I I I I I I I Y Y m m k.2.2.g.2.2.2.w.w.2.o.$.m m m Y ` i.i.g.g.$.g.o.I v m v m m m m m m m m v Y Y v 9 6 8 9 ",
"k k k k k x k k m m m m m m m m v v v v 2.2.2.2.,.,.2.2.i.i.w.g.m m m Y ` 2.2.2.i.2.i.,.( m m m m m m m m m m m Y Y m z 9 6 6 6 ",
"v v v v v v v v k k k k k k k k 9 9 9 9 g g u g k k k x v v m m m Y m m Y Y m Y k k k k a a k a m m m m m m m m u u u g r i g g ",
"m Y Y Y Y Y Y Y a a a a a a a a 6 6 6 6 u u r u a a a x x b m m m Y m m m m v m a a a a a a a a m m m m m m m m i u u u u g i u ",
"m m m m m m m m a a a a a a a a 8 6 6 6 u u u u a a a k v m m m v m m m m m m m a a a a a a a a m m m m m m m m u u u u i i i u ",
"m m m m m m m m k k k k k k k k 9 8 8 9 i i u i l k k l b m Y v m Y m m m n v m x a k x a k x a m m m m m m m m u u i u u u u u ",
"m m m m m m m m m v n m v v Y v v v Y v Y v n m I m m v k a a a k k k k k k k k o.i.o.2.i.g.o.w.2.2.2.2.2.2.2.2.2.` g.o.8 8 9 8 ",
"Y Y Y Y Y Y Y Y m m m m m m Y Y Y Y m v _ m m m H H n n k k k k a a a a a a a a 2.s.s.2.k.k.2.k.w.w.w.w.w.w.w.w.k.s.n.i.9 4 8 8 ",
"m m m m m m m m ( A ( A m m m m m m m m _ m _ A D C D S c l c s c a d c c d d c k.k.k.k.k.k.5.k.k.k.k.k.k.k.k.k.i.s.n.2.9 6 6 9 ",
"Y Y Y Y Y Y Y Y G v v v I m m m m m Y I v v G v v v v v h p a p k k k k k k k k #.[ #.[ $.| o.o.o.o.o.o.o.o.o.o.$.$.$.[ w 8 8 8 ",
"9 9 9 9 9 9 7 7 1 < 1 1 8 8 9 9 9 9 8 8 2 < < 1 & @ @ @ o o @ @ < < < < < < < < @ @ # # , < < < & & & & & & & & + + @ * . o @ @ ",
"8 8 8 8 8 8 6 6 - - - - 8 8 8 8 8 8 8 8 > = - - X X X X X X + + - , , - - , , - X   . . = - > = X X X X X X X X X X X X X X X X ",
"8 8 8 8 8 8 8 6 , : > - 8 8 8 6 6 6 8 8 > : , , . . . . . . O . - , , - - , , - & X X X , - , - . . . . . . . . X X X X + + X X ",
"9 9 9 9 9 9 9 9 , , 1 > w 8 9 9 9 9 8 8 > > , , & & & & @ @ & @ > 1 1 > > 1 1 > & X @ + , > 1 > @ @ @ @ @ @ @ @ + @ @ + @ + + @ ",
"v v v Y ' o.w.o.u u i u 2.o.o.o.o.w.| #.$.$.o.o.o.o.o.o.6 6 6 8 v m v v v v v v v v v v v v v v a a a a a a a a r r r i i a a a ",
"Y m m Y 2.i.g.o.i u u u 2.g.m.g.w.g.g.w.g.g.g.g.m.m.m.m.9 8 8 9 m ( Y Y Y ( Y ( Y Y m m Y ^ Y m l l l l l l l l g g g p l c c c ",
"Y m m ( 2.k.g.g.g u u i 2.k.k.2.g.k.g.g.g.i.2.i.o.o.2.o.9 6 6 9 m W Y m m m n m Y m v m Y Y v m a a a a a a a a u u e y a k a a ",
"m v m Y ' o.o.o.u r u g ' ,.s.5.2.2.,.,.,.,.,.,.k.2.2.' 9 8 6 8 v Y n v m m b b v v x v n Y m m k k k k k k k k i i i i k l k k ",
"Y Y Y Y Y I I I Y Y Y v v l k k i i i i k x k k u u u g 6 8 9 9 u i u i k k k k l k k x n Y Y m v v v v v v v v v Y v v m n v m ",
"m m Y m m v v m m Y m n l k k k u u r i k x k a i u u u 6 6 6 8 u i u i k c k k a a a k v Y m m m m m m m m m m Y Y Y Y Y v v m ",
"m m m m m m m I m m m b k a a a i u r i k k a a u r u u 9 8 9 9 u i u i a k a a k a a x n Y Y m Y Y Y Y Y Y Y Y v m m m Y m m Y ",
"Y Y m m m m m m m v m b k k a s u i i i k k k s i u i u 9 6 6 8 u i i i k k a a a a a k v m m v n n n n n n n n b m v m m m m m ",
"m m m m m m m m k k k a W v v m m m m m m m m m m m m m 8 6 8 8 v m m m m v v v v v I Y a a k l k k a k u g u y v Y v Y v Y v Y ",
"T T T T T T T T k a a a C n m m Y Y Y Y Y Y Y Y m ( ( Y 9 6 8 9 m m m m m m m m m Y Y m a a a a a s a a i i u u m Y v Y m Y v m ",
"m m m m m m m m a a a a C m m m Y Y Y Y Y Y Y Y m m Y n 9 6 8 9 m m Y Y m m m m Y T W W a a d d a d a k i g g g m m v m m [ Y ( ",
"v v v v v v v v k k x k v z G v v v v v v v v v Y I I v w 8 8 8 m m m m m m m m n Y Y Y h k k k k k k h i u r r m Y m Y v I v G ",
"& @ & & & @ @ & < < < = # @ @ @ < < < < < < < < > > < 2 > > 1 1 6 6 9 9 6 6 6 6 8 8 8 8 < < < < < < < 1 6 8 9 0 9 9 8 8 1 < < 1 ",
"X X X X X X X X , , , - X X X X : : : : : : : : > : : : : - : : 6 8 8 8 8 8 8 8 6 6 6 8 > ; - : : , - > 5 6 6 6 9 8 8 8 - = = - ",
". . X X X X . X - , : : X X X X : : : : : > > > > = = : : : : , 6 8 8 8 8 6 8 8 8 6 6 8 > , , : : , ; > 8 6 6 8 6 6 8 8 > : , , ",
"& & & & & & & & , < < , @ @ @ + < < < < < < < < 1 1 1 1 < > < 1 8 9 9 9 9 8 8 9 q 9 9 8 < , > > > > 1 < 8 9 9 q 7 6 8 8 > > , : ",
"a a a p i u r r u u u i p a a a a a a a a a a a o.$.$.$.$.$.o.o.v I m v m m v m v v Y Y v v m m v v v v v v m v m v I v 9 6 9 8 ",
"c c c k i i i i i i u i k x k k k k k k k k k k g.g.g.g.g.g.w.g.Y Y Y Y ( ( Y ( ( Y ( ( Y Y Y Y ( Y ( ( Y Y Y Y Y m _ v 9 8 9 9 ",
"k k x a i t u u u u r i k l k k a a a a a a a a 2.g.g.g.g.g.i.g.Y Y Y m Y m v m m v m m m Y Y Y m m Y Y m m Y Y Y m ( v 9 4 8 8 ",
"k a k k i i i i g i i i k k k k k k a a k k k k ,.,.i.,.,.` ,.2.m m v v m b b b b b m m v v m m b b m m v v m m m m Y v 0 9 9 9 ",
"m n n m v v v v v v v v m b b b n n n b n n n n x k x k i i g i u u u i h l k k k k k k i u u u k k k k i u u u i u i u 6 6 8 8 ",
"Y m m Y Y Y ' ^ Y ( Y m m m m m m Y m m Y Y Y Y k a k k i u u u u u u i k l k c k x c k i u u u k k k k i i u u u u u u 9 9 9 8 ",
"m v v m v m Y m v m m v m v v v v v v v v v v v a a k k i r g u u u u i a a a a a a k a i u u u a a k a i u i u i i u u 6 8 6 8 ",
"m m m m m m m m m Y m m Y Y m Y m m m m m m m m s a c k i r g u i i i i k k a a a a k k i u i u a a c k i i i i i g i u 9 9 8 8 ",
"$.o.w.` Y v m n w.w.w.w.w.w.w.w.g.o.w.g.o.g.g.$.2.o.$.w.v m m v m n v Y v Y m v m m m m m m m m m m m m m m m m m v v v u u u r ",
"2.2.i.,.m v v b 2.2.2.2.2.2.2.2.o.o.2.2.o.o.2.2.s.k.k.k.m b m Y m Y m ( v m m m Y Y Y Y Y Y Y Y m m m m m m m m m m m m i i i i ",
"x.x.n.s._ m D D k.k.k.k.k.k.k.k.m.m.m.x.k.k.k.k.k.k.m.k.m D W _ Y ( Y ( m m v m Y Y Y Y Y Y Y Y W m m m W W m m m m _ m i u i i ",
"[ [ #.[ G v v v $.$.$.$.$.$.$.$.#.#.#.[ $.o.o.o.;.;.#.[ I v v v v G v v m Y m m Y Y Y Y Y Y Y Y H v v v H H v v G G G j f f f f ",
"@ @ @ @ + @ @ @ + + + + + + + + @ @ @ @ , > < > + + @ # > < 2 2 1 1 < 2 8 8 9 9 6 6 6 6 6 6 6 6 < < < < < < < < @ @ @ @ @ o @ @ ",
"X X X X X X X X X X X X X X X X X . X . , , > : X X X X = > > = - - = > 8 8 8 8 8 8 8 8 8 8 8 8 : : = = : : : = X X X X X X X X ",
"X X X X X X X X X X X X X X X X + X X . , - > - X X X X - : > : , , : > 8 8 8 6 8 8 8 8 8 8 8 8 , , - , , , , , X X X X @ X X X ",
"@ @ @ @ + + @ + @ @ @ @ @ @ @ @ & @ @ + 1 , 1 < @ & @ @ , > < , , , > < 8 9 9 9 9 9 9 9 9 9 9 9 1 , , , , 1 , , @ @ & + & @ @ & ",
"v v v v u u u r v v v v v v v v v v v v v v v v v m m v 8 8 8 9 o.o.| w.| g.o.o.a a a x 7 8 8 8 a a k k m v H H v v v v v v v H ",
"Y Y Y Y g i g g Y ( ( Y Y ( ( Y Y Y Y Y Y Y Y Y Y ( m m 9 8 8 8 2.k.g.g.w.m.g.g.k a a l 7 6 6 8 a a k k m m Y Y m Y m Y Y Y I ( ",
"Y Y Y Y i u u u m m m m m m m m Y Y Y Y Y Y Y Y m D A m 9 8 8 9 i.x.g.g.2.g.o.i.k k k k 7 4 4 6 a a k x b m _ ( Y ( Y m m m m m ",
"v n v v i i i i m m m m m m m m m m m m m m m m v b b v 9 8 8 9 ' 2.' ' i.g.o.2.k k a k 0 9 9 9 k k l l x v v v m m v v m b b b ",
"k x k x a k a a m m Y m m Y m m u u u u u u u u k x x k 7 8 8 9 u g u g v Y m I m m b D v v v v n v n v g g g g u u u i h k a k ",
"a a a x a c k k v m m m m m m v u u u u u u u u a k k k 6 8 8 9 r u r u m ( m m v v v m Y Y ( m Y Y Y n u r u r u u u i k x k k ",
"a k a a a k a a m Y Y Y Y Y Y m u u u u u u u u a a a k 7 8 8 8 r i u r m Y v v Y m m m Y Y Y m v Y Y Y u u u i u u r i a a a a ",
"a k a k a k a k m m m m m m m m i i i i i i i i a a a k 7 9 8 8 i g i u Y Y m Y I Y m m Y v m b Y m Y m u u i i g i i i k k a a ",
"m m m m m m m m m m m m m m m m m m m m m m m m m m m Y r u u u o.i.2.o.i.2.2.i.m m m m m m m m Y Y v v Y Y H I m m m m m m m m ",
"Y Y Y Y Y Y Y Y Y Y Y Y Y Y Y Y m Y Y Y m m m Y m Y m ( u u u i w.i.o.o.i.i.o.2.m m m m m m m m m m m m m m m m Y Y Y Y Y Y Y Y ",
"m m m m m m m m D D D D D D D D Y W W W W Y W W Y _ ( ( u u u i g.g.g.g.m.m.m.m.Y Y Y Y W W W W m ( m m D m b m m m m m m m m m ",
"v v v v v v v v v v v v v v v v v H H H v v v H v v v v u u u i 2.o.w.o.o.[ $.#.v v v v v v v v G G v j I I I m v v v v v v v v ",
"@ @ @ @ @ @ & & @ @ @ @ @ @ & & < < < < < < < < 9 9 9 0 6 9 6 9 9 9 9 8 3 < 1 1 < < < < < < < < @ + @ @ > > 1 > @ @ @ @ @ @ & & ",
"X X X X X X X X X X X X X X X X : : : : : : : : 6 6 6 8 8 9 8 9 6 6 8 8 < $ - - : : : : : : : : + X X X , , , - X X X X X X X X ",
"O + + + + + + + + + + + + + + + > > > > > > > > 8 8 8 8 8 8 8 8 7 8 9 8 < : , , > > > > > > > > % X X X , : , = O + + + + + + + ",
"@ @ @ @ + @ @ @ + + + + + + + + > > > > > > > < 8 8 8 8 9 8 8 9 9 6 8 8 < : , , > > > > > > > > % X + + , > < > + + + + + + + + "
};
