/* XPM */
static char *_fb6fc5989ca49479cc2104d4be500f6KNYBo6fnMIEmACBj[] = {
/* columns rows colors chars-per-pixel */
"30 30 5 1 ",
"  c #92FF39",
". c None",
"X c #92FF39",
"o c #92FF39",
"O c white",
/* pixels */
" .XXXXXXXXXXXXXXXXXXXXXXXXXX. ",
".oooooooooooooooooooooooooooo.",
"XooooooooooooooooooooooooooooX",
"XooooooooooooooooooooooooooooX",
"XooooooooooooooooooooooooooooX",
"XooooooooooooooooooooooooooooX",
"XooooooooooooooooooooooooooooX",
"XooooooooooooooooooooooooooooX",
"XooooooooooooooooooooooooooooX",
"XooooooooooooooooooooooooooooX",
"XooooooooooooooooooooooooooooX",
"XooooooooooooooooooooooooooooX",
"XooooooooooooooooooooooooooooX",
"XooooooooooooooooooooooooooooX",
"XooooooooooooooooooooooooooooX",
"XooooooooooooooooooooooooooooX",
"XooooooooooooooooooooooooooooX",
"XooooooooooooooooooooooooooooX",
"XooooooooooooooooooooooooooooX",
"XooooooooooooooooooooooooooooX",
"XooooooooooooooooooooooooooooX",
"XooooooooooooooooooooooooooooX",
"XooooooooooooooooooooooooooooX",
"XooooooooooooooooooooooooooooX",
"XooooooooooooooooooooooooooooX",
"XooooooooooooooooooooooooooooX",
"XooooooooooooooooooooooooooooX",
"XooooooooooooooooooooooooooooX",
".oooooooooooooooooooooooooooo.",
" .XXXXXXXXXXXXXXXXXXXXXXXXXX. "
};
