/* XPM */
static char *c808f33064544c269fada59659ed1a8frLPgC86DC5M1AW9G[] = {
/* columns rows colors chars-per-pixel */
"64 64 40 1 ",
"  c #646464",
". c #656565",
"X c gray40",
"o c #676767",
"O c #686868",
"+ c DimGray",
"@ c #6A6A6A",
"# c gray42",
"$ c #6C6C6C",
"% c gray44",
"& c #717171",
"* c #727272",
"= c gray45",
"- c #747474",
"; c gray46",
": c #767676",
"> c #777777",
", c gray47",
"< c gray48",
"1 c #7B7B7B",
"2 c #7C7C7C",
"3 c gray49",
"4 c #7E7E7E",
"5 c gray50",
"6 c #808080",
"7 c #818181",
"8 c gray51",
"9 c #838383",
"0 c #848484",
"q c gray54",
"w c #8B8B8B",
"e c gray55",
"r c #8D8D8D",
"t c #8E8E8E",
"y c gray56",
"u c #909090",
"i c gray57",
"p c #929292",
"a c #939393",
"s c gray58",
/* pixels */
"yyyyyyyyuuyyuuyy5557=-----=-5755-=-=+o+o---=-=-=7555577555575575",
"yyyyyyyyyyyyyyyy5557=-------5755==-=+o+o-------=5557577775575555",
"yyyyyyyyuuuuyyyy7775-======-5555---=+o+o===-----7777555575577775",
"yyyyyyyyyyyyyyyy5555--------5557-=-=+o++---1====5555775755555555",
"55555555--=-5775----555555557755555555555555++++++++=---5575----",
"55555555===-5775===-577777757755555557777775ooooooo+=-=-5575-===",
"55555555--=-5775---=755555555557577575555557oo++o+o+=-==5575----",
"55555555===-5775---=755557557555575555575557o+++o+++--=-7555---=",
"7575-=-=++++++++----=--=---=++++--------=-=-55575557557555555555",
"5575----oooooooo==--==--==-=+o++----------=-77577557555577777777",
"7555-=-=oooooooo-----===---=+ooo=========-=-57555577577755555555",
"7555---=++++++++-=-=-------=+o++------------57555577555577777777",
"55555555yyyyyyyy7555yyyy55775555yyyyyyyy555577777555------------",
"55777777uuuuuuuu7555uuuu55575777uuuuuuuu777755555555-===--------",
"57555555uuuuuuuu7775uuuy75775575yyyyyyyy555555555575----========",
"57557757yyyyyyyy5551uyuy55775555yyyyyyyy755757755575-=----------",
"----75775575-===--------7775----5555yuuyyyyyyyyyuyuy-=-=55555557",
"====55555555-=--========5575-=--7757yyyyuuuuuuuyyyuy-=--57775557",
"---=75555555-===--------5575-===5557yuuuuyyuuuuuuuuy-=--77755555",
"====77777575------------5575----7770wyyyyyyuyyyyyyyw-==-55517777",
"7777yyyy5577555577777777557755555551----==-=+o++----+oo+---1yyyy",
"5555yyyy5577557755555555755757757777-===---=+ooo====++o+===-uuuu",
"7777uuuu5555555555555555755755555557=---==-=+o++=-==+ooo-===uuuy",
"5555yyyy5557557555555555557755775557=------=+o++=---++o+---=uyyy",
"--=-57755755yuyuyyyyyyuy---=yyyyyyyu=-----------5755755555555555",
"--=-55557757yuyuuuuuuuuy-==-uuuuuuuu-==---------5555755755555555",
"--=-57775517yuuuuyyuuuuy--=-yuyyyuuy------------7775775555555555",
"--=-55557757yuyyuyyuyyyy==--yyuuuuyy-===--------5555775555555555",
"--==----++oo++++-=-=++++--==--==55575777------------555755555555",
"=-==-===+++ooooo=--=+ooo=--=----75575555--------===-555555555555",
"=-==----oooooooo==-=+o++----====55555775------------575555555555",
"---=--=-$+++++++---=++++=-------75757555----------=-575555555555",
"yyyyyyyyyyuy5555uyyy55555757yuyyyuyyyyyy75555775555555557777----",
"uuuuuuuuyuuy7557yyuu55777757uuyuuuyyuuyy55575777555555555555====",
"yyyyyyyyyuuy7557uuuu75571515yuyyyyyyuuuu75555555555555555557=---",
"yyyyyyyyyyuy5555yyyy55557770yuyuyyyywwyy55557777555555557777====",
"55555555yyuy555577775555yyyyyyyyyyuy75775557wyyyyyyyyyyyyyyy7777",
"55555555yuuy755755555755uuuuyyyyyyuy51555757ysuuuuuuuuuuuuuy7555",
"55555555yuuy755757575757yuuuuuuuyyuy75757757yuyyuuuuuuuuuuuu7777",
"55555555yyuy555557575757yyyyyyuyyyuy75755757yuyyyyyyyyyyyyyy5555",
"+++o7555----5755-==-=--=++++++++=-=-5757--=-57557775------=-=--=",
"+ooo7555-==-5755-=--=---oooooooo----5755--=-57555555-=--===-=-=-",
"ooo+7777===-5755----====oooo++++=-=-5557===-57555575-===----====",
"++++5555----5755====----++++oo+o----5557----57575575-=--=-=-----",
"55557777555577577757yyyyyyyw75775555555555557755yyyyyyyy5557yyyy",
"57755555577575575557yuuuuyuy75557777775577557755uyuuuuuu5555uuuu",
"57777577575555555757yuyyuyuy75775555557555555757uuuuyyuy7755uuyy",
"55555555575577555757yuyuuyuy55757577557557557555yyyyyyyy5555uyyy",
"5575-====--=--=-5555yuuy5557=---=-=-55575557o+++++o+--=-+o++---=",
"5575-=-----=--==5557yuuu5557=-----=-55555557ooo+o+oo=-==ooo+=---",
"5575-=======---=5555yuuu5557=-----=-57777777+oooo+o+=---+++o====",
"5575-=----------7777yyyy5557=---=-=-55555555++++++++=-=-++oo----",
"yyyyyyyy5555-=-=====75555557=---=-------77775555====--==--=-yuyy",
"uyuuuuuu7575-=-=---=75555557=---=--====-555557751------==-=-yuyu",
"uyuuyyuy5575-=-----=75555557=---=--=----77577775======-=--=-yuyy",
"yyyuyyuy7575-=-=---=75555557=-----==--=-55555555--------=-=-yuyu",
"5775-=--=---555755555555555555557555557557555557yyyyyyyuyyyyyyyy",
"5575-=------575555555555777777775557577577757555uuuyuyyyuuuuuuuu",
"5555-======-575555555555555555555555555555555555uuyuuuuuyyyyyyyy",
"7575--------575555555555777777775555777777775555yyyyyyyyyyyyyyyy",
"557755555555555555555555--------5757wyyyyyyw75755575-=--55555555",
"557755775777755755555555--------5757ysuuuuuy75775575==-=55555555",
"757755555555755755555555========5757yuyyyyuy75755575-=--55555555",
"555755755755755555555555--------5757yuyuuyuy75757575-=-=55555555"
};
