/* XPM */
static char *b1031afb6b56473297ddf47f6ea869aehFSyFRIerdo3nZgh[] = {
/* columns rows colors chars-per-pixel */
"64 64 210 2 ",
"   c #3D2D13",
".  c #3F301B",
"X  c #492D1E",
"o  c #462F1D",
"O  c #46341E",
"+  c #4B331D",
"@  c #443A1E",
"#  c #4A391C",
"$  c #413414",
"%  c #54361D",
"&  c #543C1E",
"*  c #5B391E",
"=  c #442E23",
"-  c #4B2E24",
";  c #4C2D2B",
":  c #512E2B",
">  c #463323",
",  c #4B3424",
"<  c #463921",
"1  c #4C3A24",
"2  c #45322C",
"3  c #4C342A",
"4  c #4C3A2A",
"5  c #533425",
"6  c #593524",
"7  c #553A25",
"8  c #5A3C25",
"9  c #53352A",
"0  c #59362B",
"q  c #553C29",
"w  c #5B3E29",
"e  c #4E3733",
"r  c #533332",
"t  c #533C31",
"y  c #5A3C33",
"u  c #603E25",
"i  c #4B4026",
"p  c #4B4128",
"a  c #51412B",
"s  c #5D422D",
"d  c #5A4123",
"f  c #554333",
"g  c #5C4431",
"h  c #634127",
"j  c #62442D",
"k  c #6C492E",
"l  c #68452F",
"z  c #734C2F",
"x  c #624530",
"c  c #664B34",
"v  c #6D4C34",
"b  c #6E4E39",
"n  c #694630",
"m  c #714D34",
"M  c #714E38",
"N  c #6D5036",
"B  c #6E503B",
"V  c #745136",
"C  c #7B5336",
"Z  c #76533A",
"A  c #7A553B",
"S  c #7D593D",
"D  c #76583C",
"F  c #6B4F41",
"G  c #6F5946",
"H  c #735743",
"J  c #7C5640",
"K  c #735A45",
"L  c #7D5A41",
"P  c #735A49",
"I  c #6F655D",
"U  c #776A5E",
"Y  c #72675D",
"T  c #6E6662",
"R  c #6D6A64",
"E  c #6C6C6C",
"W  c #676968",
"Q  c #726B65",
"!  c #716D68",
"~  c #726763",
"^  c #67706F",
"/  c #72716F",
"(  c #6B6E72",
")  c #666D72",
"_  c #677075",
"`  c #697074",
"'  c #6C747B",
"]  c #737371",
"[  c #805539",
"{  c #815B3E",
"}  c #825E41",
"|  c #836143",
" . c #8F6745",
".. c #8D6749",
"X. c #8F694C",
"o. c #946A46",
"O. c #996C47",
"+. c #92674A",
"@. c #956B4B",
"#. c #996D4B",
"$. c #946744",
"%. c #9C714D",
"&. c #96704C",
"*. c #966E50",
"=. c #9C7353",
"-. c #A2724C",
";. c #A47654",
":. c #A67856",
">. c #AC7A55",
",. c #A67A59",
"<. c #AC7C58",
"1. c #A77755",
"2. c #B07F5D",
"3. c #B97F57",
"4. c #4D8F25",
"5. c #538E2C",
"6. c #4F9126",
"7. c #509226",
"8. c #539A26",
"9. c #529329",
"0. c #5A9B2E",
"q. c #559A2E",
"w. c #568B33",
"e. c #5B9633",
"r. c #579C33",
"t. c #5B9C33",
"y. c #5D9B39",
"u. c #629F37",
"i. c #649D3C",
"p. c #5BA12C",
"a. c #52A029",
"s. c #5EA135",
"d. c #5FA23B",
"f. c #5BA732",
"g. c #63A335",
"h. c #62AB33",
"j. c #63A43B",
"k. c #69A63E",
"l. c #66A93E",
"z. c #6BAB3E",
"x. c #69A631",
"c. c #6DB03D",
"v. c #6CA833",
"b. c #5E9E40",
"n. c #669A42",
"m. c #65A342",
"M. c #6BA543",
"N. c #66AB41",
"B. c #6AAC42",
"V. c #6DA949",
"C. c #71AD46",
"Z. c #73AD49",
"A. c #7CAE4C",
"S. c #7DA54D",
"D. c #6CB245",
"F. c #6FB34A",
"G. c #6AB944",
"H. c #71B345",
"J. c #73B54B",
"K. c #7BB24E",
"L. c #74B84D",
"P. c #79BA4E",
"I. c #78B744",
"U. c #73AD50",
"Y. c #7FA456",
"T. c #74B351",
"R. c #7EB350",
"E. c #7BBD54",
"W. c #7CBC5B",
"Q. c #78C14E",
"!. c #7CC156",
"~. c #B4835B",
"^. c #BB855C",
"/. c #BC885C",
"(. c #BB8056",
"). c #80B24F",
"_. c #85BB4C",
"`. c #83AF50",
"'. c #86AF59",
"]. c #83B252",
"[. c #83BE56",
"{. c #86B25A",
"}. c #8BB559",
"|. c #87BB59",
" X c #8CBC5B",
".X c #88BA57",
"XX c #93BE5E",
"oX c #B48262",
"OX c #BC8663",
"+X c #BB8B62",
"@X c #8CBD62",
"#X c #94BE63",
"$X c #97BA67",
"%X c #C0875B",
"&X c #C38A5D",
"*X c #C18A63",
"=X c #83C553",
"-X c #8CC25D",
";X c #89C656",
":X c #93C25E",
">X c #93C85C",
",X c #8DC362",
"<X c #94C363",
"1X c #99C264",
"2X c #9ECC6C",
"3X c #98CA68",
"4X c #9BD16D",
"5X c #A2CD6C",
"6X c #A3D673",
"7X c #A1CE6E",
/* pixels */
"J.J.J.J.J.L.J.J.H.J.J.B.k.k.k.k.m.k.M.M.B.c.J.z.t.s.s.s.B.N.N.B.E.E.[.E.J.J.J.J.M.N.N.N.l.k.k.l.N.l.l.N.y.s.s.y.6.6.7.7.B.B.B.B.",
"P.P.J.J.J.J.J.J.F.F.J.B.k.j.k.j.f.f.j.g.J.H.T.B.s.s.s.s.B.N.l.B.E.E.E.E.J.L.L.F.N.l.l.N.l.k.k.k.l.l.l.N.s.g.g.g.7.6.6.7.B.B.N.N.",
"J.J.J.J.J.J.J.J.F.J.J.D.l.j.l.j.k.k.N.h.T.H.F.G.t.t.t.s.B.B.B.B.E.[.=XE.L.J.L.L.l.l.l.l.l.l.l.k.l.N.l.l.y.y.y.y.4.4.4.7.B.B.B.B.",
"J.J.J.J.J.J.J.J.J.J.J.C.k.k.k.k.k.g.h.h.M.C.B.l.s.s.s.g.l.N.l.N.E.E.E.L.E.J.J.J.B.B.V.B.k.j.l.k.l.l.l.l.j.g.g.g.7.7.7.9.N.N.N.N.",
"J.J.J.J.D.B.B.B.}. X X.X).K.].).{.{. XS.q , , q l.N.N.k.g.g.u.g.s.s.y.k.-X<X<X<X-X X:X|.J.F.J.J.s.s.s.g.N.B.B.B.l.k.k.k.B.N.N.N.",
"J.J.J.D.B.N.B.B. X X X}.].`.].].R.K.].A.5 - X 9 N.B.N.N.g.g.g.g.s.r.r.g.:X1X#X#X<XXX1X XJ.B.F.D.g.s.s.s.B.B.B.B.l.l.l.l.N.l.l.N.",
"J.J.L.J.D.B.H.J. X X X}.].`.].].'.'. XK.9 , O a l.N.N.N.d.g.j.j.t.s.s.g.:X1X#X<X-XXX<X XJ.D.J.J.k.j.j.g.B.B.B.B.N.N.N.B.B.B.B.D.",
"J.L.J.D.l.j.j.k. X X X|.].K.].R.).R._.B.0 3 O a N.N.N.l.t.y.t.t.g.s.r.s.<X<X,X,X,X-X<X XJ.D.J.Z.t.t.r.t.N.N.N.B.k.k.g.j.g.g.g.g.",
".X X;X).7 3 $ f 2X2X2X3Xi.j.j.j.N.l.N.m., , > a B.G.I.k.5 > + 1 Z.L.G.L.P.[.=XQ.:X-X,X<X>X>X2X,Xq > - 4 8.a.9.8.f.g.x.0., 3 # , ",
"#X$X<X}., -   q 2X5X5X3Xu.s.g.g.l.l.N.m., , > a U.F.J.M., 3 , 1 J.E.L.J.!.E.W.W.<X1X#X#X2X2X7X$X3 . , 3 9.q.e.r.d.b.f.y., ; # O ",
";X-X;X|.1 3 , y 4X6X6X4Xl.l.l.N.k.l.N.m., , > 4 I.I.I.C.+ - ; 4 F.E.T.J.=X=X=X;X@X<X1X<X2X3X5X5Xy X , 1 e.0.0.8.x.g.h.i.+ : 1 4 ",
"A.{.}.Y.1 = > y <X<X#X|.i.e.e.e.k.B.D.m.1 5 , q M.l.M.n.1 , : 4 C.J.J.G.U.F.F.T.<X<XXX-X$X@X@X{.9 O 1 p w.5.5.5.t.t.t.w.@ ; , 3 ",
"1 > O i - 4 1 1 5 7 5 q o > , 1 B.J.G.V.7 5 q 7 0 & 7 7 - , , 1 r.f.f.0.7 , 5 7 h.D.D.n.# - , 9 7 7 0 6 1 # , q 5 6 7 7 3 3 1 1 ",
"; ; : > 9 < O 1 0 0 6 0 , , , 9 F.P.L.C.q 9 q 7 r 7 0 5 4 1 , 7 e.p.f.p.; ; ; 4 z.B.D.m.X ; 3 2 1 7 q 7 2 - ; r 4 0 9 5 4 3 > + ",
"@ @ , > 1 < , , 7 q 5 9 3 , > 4 B.L.F.V.7 9 q 7 7 & q 6 < O = 1 j.j.l.p.0 5 + 1 D.F.H.N.+ 3 # < 0 6 7 % , % O # & 6 7 5 1 , > , ",
"1 4 0 t , @ 9 9 7 s 7 7 1 , , q N.J.D.V.7 6 q 7 0 7 t y < 7 3 p q.t.i.8.r , , t l.V.c.y.5 e + 3 y 6 a & e 9 4 1 q 7 4 y 1 5 4 4 ",
"o.o.@.#.V A Z V A C A A A A A V q 4 4 4 1 , , 1 V V V V A A A Z q q 7 q q 7 7 7 4 1 q 1 1 1 , 7 $.#.o.#.@.@.#. .A C A A C C A C ",
"#.#.#.*.A A A A A A A A A S S C 3 , > , 1 , , 4 A A A A A A A A 7 5 5 7 7 7 7 7 , , , , , 3 , 9 #.%.#.%.#.#.%.@.A A A S A A S A ",
"#.#.#.@.A C C A S A A A A S S A , > > , , , , 3 A A Z A A A A A 7 5 7 7 q 7 q q , 4 1 , > > = 4 #.%.%.#.#.@.#.@.S A A A A A S A ",
"@.@.@.@.S S S S A A A A V V V V 7 7 7 7 7 5 , 7 Z V V V A A A A 7 7 7 7 7 7 7 7 , 1 , + s 7 7 7 ....@.+.#.#.#.@.A A A A V V V V ",
"| | | | S } } } A A A A m m m m Z Z Z Z b v v b b b m V V A A A s s s s s s s s m v v C oXOXOXoX8 6 u h V C C C A A A A m m m m ",
"S S S } S | | | A A A A v v v b A S S A V v b Z b b b m V A A A s s s x s s s x m v v C *X&X&X(.w 5 7 8 Z J A A A A A V m v v v ",
"| | | | | | | | A A A A m v v v C A A V m v b b b b b m Z A A A w w s s s s s s k c c V +X/.&X+Xs 7 8 8 J A C A A A A V m v v v ",
"} } } { { { { { A A A V b v v b C A A V V b b b B b b m Z A A C x x x x x j x x z M v V oX3.~.2.s 7 w 8 A A C A A A A V m v b b ",
"s s s s j s s x J A A A C S S V v b b v v v m m C S A Z w w q y A S A A A A C A A A A V b v b b v v m m A A S A A A A A A A A C ",
"s s s s s s w s C A A A A A S A v v v v v v v v S { A Z 6 8 7 6 A A A A S S A S S A S A b v b b b v b m Z Z A C A A A A C A A C ",
"s s s g g s g g A S S A A A C V v k v b v m M m A A A A % 6 6 8 A S A A A A A A A A A V b v v b v b B b A V A A A C A A A C C C ",
"j j j j s s j j V Z Z V } { S A m m m V n v v v Z Z V Z g f f g A A A A S S A A S A S A m b V V v b b b S S S S A A C A K P P K ",
"A A A Z m b b b 7 7 7 l ..#.#.#.A A V V w w w w 7 6 8 g I E R Q A A A S } } } } } } } } A A A A S A A S +.#.@.@.A A C K Y ! R Q ",
"S A S A m v m k w q q j @.%.o.o.A S A Z 7 7 7 7 q 6 6 f ] ' _ ( A A A S } | | | | | | } A A A A C C C A #.#.#.O.A A C P ! ' _ ( ",
"A C A A m m m v 7 7 9 j #.%.#.#.A A A A 8 8 w w q 7 7 f E _ ( E A A A S } | } } } } } L A V V V A A C C #.#.#.O.Z A C K ! ` ) E ",
"A C A A v v b n d s w j #.O.o.+.C A A A 7 w w w g 6 * g T ` E I A A V A } | } } } } | } S A A A A J A A #.#.o.@.V C C H Q ( E Q ",
"w w 8 w w 8 8 s ;.:.:.;.A A J A w q w w v v m m m k m v 8 8 s 8 q w w w Z A A A C A Z { ^.^.(.oX1.;.>.:.C A S A q w w w L A A S ",
"7 7 7 7 w 7 7 s >.<.<.;.A C C A w q 8 w v v v v b v b v 8 7 w q q 7 7 8 Z S A A C J A } OX%X/.+X>.>.>.:.A A A C 7 7 7 7 A A A C ",
"q q q q w 7 7 w >.<.<.;.[ C C A w 7 7 w v b b v v v b x 7 7 q 7 w 7 7 8 V A A V C A M { ~.%X/.^.<.>.>.:.A A A C 7 7 7 8 A A S A ",
"w w w w s w w j :.,.:.=.{ A A C w 8 8 j v v v v m m m k h h j j w 8 8 l V A A S A S C } ~.^./.~.;.;.;.=.A Z Z V w 8 w h V A A C ",
"A A A A A A V A C C C S V A A A J J Z A A A A S >.>.,.,.;.1.,.;.A A Z V m v k v #.=.#.@.%.O.#.O.A A [ S 8 w w s Z Z Z V J S S S ",
"A S A A S A A S J A C A V A Z V A J A J C C C S >.>.>.>.>.>.>.>.A A A A m v v Z o.%.#.#.#.@.#.@.V A C V 7 q 7 7 A A A A A C C C ",
"A A A A A A A A J A C A A A A C C A C A C A C S >.>.>.>.<.<.>.>.A A A A v v v m #.#.o.#.#.#.%.@.A S A Z 8 q 7 w S S S S A A A A ",
"A A A A A A A A A A A A S S A S A S V A A A V S ;.:.1.;.1.;.;.;.A A V A m v v V @.#.o.@.o.o.o.$.Z A C A s w w j S S A A A A A A ",
"s s s s s s s s A C A A #.@.#.@.S C A S } | | | | { | } v v b b N b v b Z A A A A A A A A A A A j s g j #.#.O.+.A A A A A A A A ",
"s s s s s s s s A A S A #.#.#.#.S C C S } | | | { { } } v v b b b b m v A C C C V A A C C A A A w s g l @.#.#.&.A A A A A A A A ",
"s s s s s s s s A A A S #.%.%.#.S A A S } | | | | | | } m v v b b m m m A A S [ A S S A A S S A n g g l @.%.O.o.A A A A A A A A ",
"j j j j j j j j A A A A ....@. .A A A S L } } } } L } S V m m m v v m v K G P H V V V V V V V V n j s v ..#.#.@.S S S S S S S S ",
"b b b b b b b b v v v k m m m k A A A A A S A A v v m m V A A A S A S K U ! ! Y 7 7 7 8 8 8 8 8 A S Z V S C C A } } } } } } } } ",
"b b b b b b b b b b m v v v v v A A A A A A A V v k v v A A S A A C C G R ` ` W q q q q q q q w V S S A S A C J | | | | | | | | ",
"v b b b v b b v v v v v v v b b A A A A A A A A m v b m A A A C A A A K ! ` ` W 7 7 7 7 7 7 7 7 A S A A A A A A | | } } } } } } ",
"b b b V m b b b v k k v k v b v V A A A A A A A v v b v A A A A Z C [ H ~ ( E T w w w w w w w s Z A C C A Z A S } } } } } } } } ",
"o.#.@.@.C S A V g 6 * g T ( E I b v v m :.>.1.-.M v b b b v N b A S A Z w w q x oX^.^.>.v x b m w w 8 w w w w w A A A V 8 w w w ",
"#.#.#.#.C S S A q 7 8 f E _ ) E v v b V ,.>.>.>.b v b b b v V b A S A A 7 7 5 s +X%X%X~.k v Z k 7 7 7 7 7 7 q w A A A V 8 q q 7 ",
"#.#.#.@.C A V V w 8 6 f / ' ( ( m v v m ,.>.>.;.b b Z b b v b b V A A Z 8 7 7 x *X%X&X^.k v b v w w w 7 w 7 7 8 A A A V 8 q q 7 ",
"@.@.@.+.S S S A w 8 8 g I E R T b v v V =.:.,.=.b v v v Z v m m A S A V w 7 6 w ~.~.~.,.m v v v 8 7 7 6 j w 8 j A A A Z w w s w ",
"A A A S V C A C Z A A Z g f t w 8 w w 7 l h h j x s j l Z Z A A A A A J Z Z L J m m m m V A A A A A A S X.+.+.@.@.@.#.@.A Z A A ",
"V C A A A S S S A S A S % 7 6 * 7 q w 7 j s s g s w s j A A A S A A C A V A A V c v v l J A A A A A A A #.#.#.#.#.#.#.@.A A S A ",
"A A A A A A A A A S A Z 6 8 7 6 8 w q q s s s s g s s j A A A A A V C A A A S A v b b v S C C S S A A C #.#.#.O.#.#.#.@.A A A A ",
"A A A A A C C A C S A Z s w q g 8 w s s j s s g g s j j A A V C S S { S A A A C m k v m A A A A V V A C #.@.o.o.@.@.#.@.A Z A A ",
"A D S A s q 8 s 7 w 7 w b m k m @.#.#.@.m v v v A S A Z 7 8 7 s ;.>.>.:.A V S A A A A A Z A Z Z j s s s s s s j A A A A A A A A ",
"C V A C w 7 q q q w 7 w v b k v @.%.#.@.m v v m A A A Z 6 7 7 7 >.2.>.1.A V A V A A A A V V V V s s s s s s s s A A A A A A A A ",
"C A A C w 7 w q w w 7 w v b v m @.#.#.@.m v v m S S A Z 8 7 7 8 ;.<.<.1.A V A A S A S A A V V V g g s g s s s g A A A A A A A A ",
"H K P H s w w w w w w s v v v b @.@.o.+.v v v v V A V Z h w 8 j ;.<.<.;.{ V A C V V C V S S S A n j j x j j j n A A A A A A A A ",
"Q Q Q U B b b b s s s s j s s j A A A A 7 7 7 w S S S J V Z Z J o.O.o.#.@.*.=.@.S A S S +.#.*.@.A A A A A A A A A A A A A A A A ",
"E ( ( R F v v m s s s s s s s s Z A A Z 8 q q w A A C A A A A A #.#.O.#.#.*.#.o.A V A A #.#.#.@.A A A A A A A A A A A A A A A A ",
"^ ( ( R b m v m s s s s s s s x Z A C Z w q q w S S A A A A A A @.#.#.#.@.@.#.O.A A A A #.#.#.o.A A A A A A A A A A A A A A A A ",
"E E E R b m N M x s s s s s g g A A C A 8 7 8 w A A A C S C C S @.#.@.@.#.#.#.$.V C A C #.#.#.O.A A A A A A A A A A A A A A A A "
};
