/* XPM */
static char *_0a02acd9d234a53c46e833ec91b38ad9yLRkts2Tx3Ypxpw[] = {
/* columns rows colors chars-per-pixel */
"64 64 153 2 ",
"   c #C3A967",
".  c #C4A76B",
"X  c #C5AC6D",
"o  c #C9AD6D",
"O  c #C5B06D",
"+  c #C8B16E",
"@  c #C4AE73",
"#  c #C9AE73",
"$  c #C4AF79",
"%  c #CBAD79",
"&  c #C5B174",
"*  c #C9B073",
"=  c #C5B27A",
"-  c #C9B37A",
";  c #D1B77E",
":  c #CDB685",
">  c #CEB986",
",  c #CEB788",
"<  c #CEBB8B",
"1  c #D1B686",
"2  c #D2B986",
"3  c #D2B689",
"4  c #D2BA8B",
"5  c #CFBD91",
"6  c #D1BD91",
"7  c #D4C18E",
"8  c #CFC092",
"9  c #D4C495",
"0  c #D8C495",
"q  c #D8CB96",
"w  c #D4C699",
"e  c #D9C69A",
"r  c #D5C99B",
"t  c #DACE9D",
"y  c #D7D19F",
"u  c #DBD19E",
"i  c #E0D09D",
"p  c #D7CFA1",
"a  c #DBCFA2",
"s  c #D6D2A3",
"d  c #DAD2A3",
"f  c #D7D5AA",
"g  c #DBD4A9",
"h  c #DEDAAD",
"j  c #DFDBB2",
"k  c #E0CEA0",
"l  c #E1D5A5",
"z  c #E2D7AA",
"x  c #E9D7AF",
"c  c #E3DAAD",
"v  c #E9DDAE",
"b  c #E5D7B0",
"n  c #E3DCB2",
"m  c #EADEB1",
"M  c #E5DDB8",
"N  c #EBDEBB",
"B  c #E6E2B6",
"V  c #E8E1B5",
"C  c #E8E1B7",
"Z  c #E8E4B7",
"A  c #EAE2B6",
"S  c #E7E2B8",
"D  c #E6E3B8",
"F  c #E5E1BB",
"G  c #E5E3BA",
"H  c #E6E3BA",
"J  c #E7E4B9",
"K  c #E6E4BB",
"L  c #E7E4BB",
"P  c #E7E5BC",
"I  c #E6E4BD",
"U  c #E7E5BE",
"Y  c #E7E5BF",
"T  c #E5E4BC",
"R  c #E8E0B9",
"E  c #E9E2B8",
"W  c #E8E3B9",
"Q  c #EAE2BB",
"!  c #E9E4BA",
"~  c #E8E5BA",
"^  c #EAE5BB",
"/  c #E8E5BC",
"(  c #E9E6BD",
")  c #E8E6BD",
"_  c #E8E4BE",
"`  c #E9E5BF",
"'  c #E8E6BF",
"]  c #EAE4BB",
"[  c #E7E8BC",
"{  c #EAE9BE",
"}  c #F0E7BE",
"|  c #E6E7C1",
" . c #E9E7C1",
".. c #EAE6C0",
"X. c #ECE6C2",
"o. c #E9E7C0",
"O. c #E7E9C1",
"+. c #EAE8C2",
"@. c #EDE8C2",
"#. c #EEE9C3",
"$. c #EAEAC6",
"%. c #EBEBC7",
"&. c #EEE8C4",
"*. c #EFE9C5",
"=. c #EFEAC4",
"-. c #ECE9C6",
";. c #EFE9C7",
":. c #EDEAC7",
">. c #ECEAC4",
",. c #E9E9C2",
"<. c #EEE7CA",
"1. c #E9E8C9",
"2. c #EAE9CA",
"3. c #EAE9CB",
"4. c #EBEACB",
"5. c #EEE8C8",
"6. c #EFE9C9",
"7. c #EDEAC9",
"8. c #EEEBC8",
"9. c #EDE8CA",
"0. c #EEE9CB",
"q. c #EDEACB",
"w. c #EEEBCA",
"e. c #ECECC8",
"r. c #EFECC9",
"t. c #EFECCB",
"y. c #EBEACC",
"u. c #ECEBCC",
"i. c #ECEBCD",
"p. c #EEEBCC",
"a. c #EFEACD",
"s. c #EDE9CE",
"d. c #EFEBCE",
"f. c #EEEACF",
"g. c #EDECCD",
"h. c #EFECCD",
"j. c #EDECCE",
"k. c #EEEDCE",
"l. c #EEEDCF",
"z. c #EFEECF",
"x. c #F0E7C8",
"c. c #F0EDCA",
"v. c #F0EBCE",
"b. c #F0EDCC",
"n. c #F0EDCE",
"m. c #F0ECCF",
"M. c #F1EECF",
"N. c #F2EFCE",
"B. c #EFEBD0",
"V. c #F1EDD0",
"C. c #F2EFD0",
"Z. c #F2EED1",
"A. c #F3F0D1",
/* pixels */
"t.7.u.g.7.u.g.7.v.u.u.m.u.u.B.u.u.u.m.7.( F Q Z u.m.m.7.( F L ( L L L L L L L L ~ ~ F F ~ ~ F F L L L L L L L L F F ~ F c c c c ",
"u.2.2.u.2.u.g.2.t.>.t.t.$.$.t.$.2.2.u.>.I F L L 2.y.u.2.I F F I I I I I I I I I F L F F ( I L ( I I I I I I I I I L ( F j h j h ",
"g.2.g.g.u.g.g.g.g.u.g.g.g.C.A.m.g.g.m.c. .( ( ~ m.C.C.7.,.I I ( I I I I I I I I (  .( I ( I I ( I I I I I I I I ( I ( L n b n b ",
"t.7.t.t.>.>.>.>.7.7.7.7.<.7.7.x.>.>.>.@.Q A A A @.>.>.X.~ A A Q L L L L L L L L A Q A B ~ ~ L ~ ~ ~ ~ ~ ~ ~ ~ ~ A A A A b c b c ",
"b b b b g g g g d d g d r w w w w w e r w w r e w w r r w 9 e r d d d d d d d d w w 9 r a d d d d d d d d d d d e w e e w 9 w 9 ",
"b b b c d d d d d d d t 9 9 9 9 9 9 9 9 9 9 w 9 9 9 9 9 9 9 9 9 d d d d d d d d 9 9 9 9 t d d d d d d d d d d d 9 9 9 w 9 9 w 9 ",
"n n n c g d d d g g g d e e e e 0 w w 0 9 9 w 9 0 w e w w 9 w e d d d d d d d d 0 w 9 e a d d d d d d d d d d d 9 9 9 w 9 w e w ",
"b b n c d s d d s d d t w 9 9 9 w 9 9 w 9 w e 9 9 9 9 9 w w e e d d d d d d d d 9 9 9 w a d s s d d d d d d d d w 9 9 e 9 9 e 9 ",
"$ @ @ @ & & @ o @ @ @ @ @ @ @ # 4 4 4 4 4 4 4 4 # # X # # # # @ # @ @ = > 4 4 < 4 4 4 2 * @ o o X * @ @ * @ @ # % @ @ & @ - & & ",
"X o o X @ @ X X X o o X X X X o < < < < < < < < @ @ X X X X @ X X @ X & 1 4 4 4 < < 4 > = @ @ @ X @ @ @ X X X @ @ X X X @ X X o ",
"X X X X X @ @ @ X o o X X X X X 4 4 4 4 4 4 4 4 @ X X X @ @ X X @ & X @ 1 1 : 1 2 2 2 ; @ . X X . X @ X X o X @ X X O X @ @ o o ",
"= = = - @ @ * @ * * # @ - & @ @ 4 4 4 4 4 4 4 4 & & & O & & & & @ @ @ @ 4 9 6 6 4 4 4 2 - @ & * @ @ = # X X X @ @ & @ @ = $ @ @ ",
"V A A z - . X @ : : 4 4 l z c v B B B B B B B B F F F F F F F F 4 2 2 7 v F B A F F F L F B F B 2 > 2 : # X @ @ 4 4 4 7 m A A A ",
"I | $.V = . X @ 6 4 6 5 b n n n I I I I I I I [ [ [ [ [ [ [ [ [ 4 3 1 6 F O.O.( | I I | | ,.,.I 4 4 4 2 & @ @ @ 6 4 3 5 Q O.I I ",
"( I | B = X X @ 4 < < < b n n n Q Q Q Q Q Q Q Q ( ( Q ( ( ( ( Q < 4 1 < F I I F ^ A ~ ^ A ~ ~ B 4 , 4 2 @ X * @ < 4 3 < ~ O.I  .",
"A L ,.A & X @ @ 2 4 4 < c c c b F F F F F F F F I F F F I I I F < 4 4 4 A I Q Q L F L I F F I I 4 > 4 2 @ X + X > 4 2 < A L F Q ",
"a d g d < 4 4 < d d d a e 9 0 0 d g g d r 9 9 w A ( ( Q < 4 4 4 c c n c c c c n g d d d d d g d g d d d < , > > t g a d d g d d ",
"g g s u 4 4 3 > s g g d e 9 9 w a d d u w 6 9 w F [ ( Q < 4 4 4 n n n c c c c c g d d d d d d s d d d u 6 4 < 4 d g d d d g d d ",
"t s d t 4 1 3 4 d d g d 9 9 9 w d d d t w 6 9 9 I ,.,.~ < 4 1 4 c n n c n n n n d d d d d d d d u u y d < 4 4 4 d d p d d g d d ",
"d d d t 8 < < 4 d u d a e 9 w 0 d d g a r 9 w e n B B m 4 2 2 4 c c c c c c c c d d g g d d g g d g g l > : : > d g g g s d d d ",
"d d a g B ^ ^ Q 4 < 4 4 < < < < c n n n c c c c 4 6 5 7 @ @ @ @ c n n c g d d d c c c h d d d d c b b z = @ @ & n B B n d d d d ",
"g d a g L [ I F 4 : , 4 4 4 4 4 b j j j n n n n 3 1 : 2 @ @ X & c n n c d p d d n n c c g d d d n M M c @ . X X ( { { ~ d d d d ",
"y d d d L T I ( 4 , : 4 4 4 4 4 n n n c n n n c 4 4 4 2 @ X X @ c n n c g d d g c c n c g d g g c n n v @ o o * L I ( ~ d d d d ",
"s u u d ~ L ( N 4 < 4 4 4 > > < z c c c c c c c < < < < @ @ X * c n b z d d d d c c n z d d d d c c n v @ o X @ F F L F d d g d ",
"d d d d d d d d a d g d < 4 4 < 2 4 4 4 & o O & X X X X X X X X 4 4 4 < d g s d d s g d 9 9 e 9 4 4 4 2 * X X X & # # @ d g d k ",
"d d d d d d d d g d s u < 4 4 : 4 4 < 4 @ X o X @ @ @ @ @ @ @ @ 4 4 4 < d g d d g s s d w 9 w 8 < < 4 > = @ @ @ X X o @ u s s d ",
"d d d d d d d d y d d u < 1 4 4 < 6 4 4 @ X . # X X X o X X X X 4 4 4 4 d g g g d s g d w 9 0 w 2 2 2 ; @ . X X O X X @ u g g d ",
"d d d d d d d d d d d t 5 < < < > 4 2 : = & @ $ & & & & & & & & 4 4 4 4 t d a a d d d t r 9 e w 4 4 4 2 - @ & * @ @ @ = q u u t ",
"d d d d d d d d d p a g n ^ ^ B & @ @ - l v c z B B B B F B B B 4 4 4 < e r 9 9 4 < < 5 z c c c F F F L F B F B 4 4 4 : - @ @ @ ",
"d d d d d d d d g d a g L ,.,.F +   X @ v B G h | | | | | | | | 4 : 2 < w 9 9 9 4 3 , < c n c h | I I | | | ,.I < < 4 : @ . o o ",
"d d d d d d d d d d d g L [ ,.( X o o @ v j n n Q Q Q Q Q Q Q Q 4 : 4 4 w w e w : 3 4 < c c n n ^ A ~ ^ A ~ ~ F 4 < < > * o * @ ",
"d d d d d d d d s u d d B L ( N & # o $ v n b c I I I I I I I I 4 4 4 4 9 9 w 9 < 4 4 < c c c b L F I I F I I I 4 < 4 4 @ X & @ ",
"< 4 2 4 a s d t @ @ X @ 4 4 4 4 c b n z d d d d d d d d d d d g x c h z < 1 > > c n c c d d d g c n b z g d d d A I I n = X X & ",
"< > 1 4 d f g d @ X X @ > < < 3 b n n c g d d d d d d d d d d d n n B n 6 3 4 < c n c c d d d s c n b z g d d d ~ I I A @ o o X ",
"4 2 1 4 d g f p @ @ # @ 4 < < 4 b n n c g d d d y y s d d d d d b j j c 6 3 3 4 n n c n d d d g n n c z g d d d ( ( ,.^ @ X o o ",
"< > 4 7 t d d d @ X X @ 4 < 4 4 z c c z g d d d g g g g d d d d m c v l 4 4 1 2 c c h c a a a d z c c z g d d d B F F c = @ @ @ ",
"4 4 4 : = @ @ @ & X X & 7 9 9 9 d g g g d d d d B B B n g d d d @ @ @ = @ @ & & d d g d e e w r d g g d d d d d g d g g z z c z ",
"< < 4 2 @ X o o * @ X & 9 e e w d d d d d d d d ( ~ { A g s d d o o o + X X X X d d d d 9 9 9 9 d d d d d d d d d d d p B n n n ",
"4 4 4 4 @ X X X @ . . @ 7 9 9 9 d d d d d d d d F F ( F g s g d X . X X X X X X d g d d 9 w 9 w d d d d d d d d d d d d n j n n ",
"4 4 4 4 @ * @ @ * @ X - 9 9 w w d d d d d d d d I F ~ B g s g d & & * # & @ # % d g d d w w 9 w g d d d d d d d g d d g g c c z ",
"d d d d z b c c z n b c w w 9 e B F Q Q d u d d a g d d 4 2 : 4 F F ( L F B L B 5 > > 4 c n b c c c c c d d d d i d s d 4 2 4 < ",
"d g d g c n b n n B n n e w 9 e I ( ( ( g d g d d s s d > 2 2 4 I I ( ( I ( ( L 4 4 2 < b b b n n n j n d g d d d g f d < 1 2 < ",
"d d d g c c b n b n j b w e 9 e I I ( L s s d d d g g z < : 4 4 I I (  .( ( [ ( > : : : m n n n j B n n s d a g d s f d 4 2 4 < ",
"d d d d z z z z c n b c 9 0 9 9 A Q Q A u u u u d d d a < < < < ( L ~ ~ B A Q B < < < 8 z c b c c v z z g d d d l d d t 7 4 2 > ",
"d d d d g g d g d d d u = @ @ & < < < 4 $ @ @ @ < 4 < 9 v ^ A A d d d a r w e r Q Q Q m 8 < 4 < = @ @ - z n n z @ @ & - : 4 4 4 ",
"d g d d d d d d d g g u @ X X X 2 3 4 2 @ X o # 3 4 : < A @.L Z d d d t 9 9 9 w I I @.} < > 4 4 *   X @ v n F c o o o # > 4 4 < ",
"d g d d d d d d d d d u @ X X X 2 4 3 2 @ X X @ 4 4 4 4 Q I I L d d d t w 9 9 0 I T I Q < 2 4 < X X o @ c j n c X X X @ 2 4 4 < ",
"d d d d d d d d g s g u & @ * @ 4 4 4 4 & & @ @ < : 2 < B I ,.F g d d a e 9 w w B I ,.B < > 4 < = & X & c n j z & @ @ @ 4 4 4 2 ",
"< 4 : 4 u g d d > 4 4 < B T F Q B F I B d d d s = @ X @ d g d u 9 w 9 w a d d d s d d g d d d u u d g u & o * = 9 w 9 9 c n h b ",
"> 4 4 4 d s g d > 3 3 < A [ I ( ( ( I ~ d d g s @ o o @ u s d d 0 w 9 w a d d d s s d g d d d d g g s u & o o @ 9 e 0 e c j c n ",
"4 3 4 < d d g s 4 3 3 6 A [ I L L T L L g d g d @ X o @ u s g p w 9 9 9 d d d d d d g d d d d d d g g u @     * e w 9 e c B n c ",
"4 < < 6 t d g d < < 6 8 n B L F Z L I A d u d d $ @ @ - t g g d e e 9 r d g d g d a d a g d g d d d d t - & @ = w w w r z c c c ",
"z c c l 6 < < < Z A B n B n b b c b n z 5 > < < B A V V d d p d a d d d d d d g e 9 w r z z c h 4 : < 4 t t d u B ~ ~ c t 9 9 e ",
"c c c c < , 3 4 T T L L n c c b b n n c 4 : 2 4 | $.( { s d t d d g d d g d d g w 9 9 w c n n n 4 1 4 < l d g d T I [ A r 9 0 e ",
"n h h z 4 3 4 > I I [ L b c c c c c n z 4 : 2 4  .| T ( s d u u d d d d d g d d 0 w w w m n n n 4 2 4 < d s g d ( L L B e 9 0 9 ",
"b h V z 6 : 4 < Q F L Q b c n h c j n z 4 > 4 4 A F ( ~ s d g g d d d s d d d d 0 9 w 9 c c b j < 4 2 < d d d u Q F ( A w 9 w 9 ",
"d g d d < 4 4 4 c c c c c c c c 9 e w 9 & @ @ & 4 4 > 4 B  .I B z n n z 6 4 < 5 & @ # # & @ # # @ * X @ 2 4 < 4 d d d d d d d d ",
"d d d l < 4 4 4 c c c c c c c c e 9 9 9 @ o o . 4 4 2 < Q I T ( n n b c 4 4 4 < X X # @ X X @ @ @ * X @ 2 4 , 2 d d d d d d d d ",
"d d d a < : : > n n n n n n n n e 9 r 0 @ X o o > 2 : < ^ ,.I ( n n n m : > 2 4 o X X @ o O O . @ @ X @ 2 4 4 4 d d d d d d d d ",
"d d d d 6 4 4 4 c c c c c c c c w 9 w 7 = @ & @ < < < 9 c A A A c c c z 6 < 4 4 @ @ $ = . * & @ @ @ @ $ > 4 < 4 d d d d d d d d ",
"d g s d t t t u < < < < < < < < 4 4 > 9 l c z c A A A c 9 < < < 4 4 < 6 z c c c A A ^ v 4 1 2 4 w 9 9 9 w e w w < < < < < < < < ",
"d s s g g l g g > > > > > > > > 4 4 : < b F j n ( I ,.^ < : 2 > 4 2 > : m n n n F I O.F 5 3 3 4 e w w w 9 9 9 9 4 4 4 4 2 1 4 4 ",
"d d s d d d d s 4 4 4 4 4 4 4 4 < 4 2 4 c n j n ( T I Q < 2 4 4 < 2 2 < c j n c  .I I F 6 4 4 < e 9 w w e e w w 4 4 4 4 4 4 4 4 ",
"a d d d d d d g 4 4 4 4 4 4 4 4 < : 1 4 z n n z B I  .B 4 > 4 4 5 < 4 4 z b c z Q F L A < 2 2 > e 9 9 w 9 w w 7 4 4 4 4 2 2 2 2 "
};
